HIERARCHY
ROOT Hips
{
	OFFSET 0.000000 0.000000 0.000000
	CHANNELS 6 Xposition Yposition Zposition Zrotation Yrotation Xrotation 
	JOINT LowerBack
	{
		OFFSET 0.000000 0.000000 0.000000
		CHANNELS 3 Zrotation Yrotation Xrotation
		JOINT Spine
		{
			OFFSET 0.028270 2.035590 -0.193380
			CHANNELS 3 Zrotation Yrotation Xrotation
			JOINT Spine1
			{
				OFFSET 0.056720 2.048850 -0.042750
				CHANNELS 3 Zrotation Yrotation Xrotation
				JOINT Neck
				{
					OFFSET 0.000000 0.000000 0.000000
					CHANNELS 3 Zrotation Yrotation Xrotation
					JOINT Neck1
					{
						OFFSET -0.054170 1.746240 0.172020
						CHANNELS 3 Zrotation Yrotation Xrotation
						JOINT Head
						{
							OFFSET 0.104070 1.761360 -0.123970
							CHANNELS 3 Zrotation Yrotation Xrotation
							End Site
							{
								OFFSET 0.000000 0.000000 0.000000
							}
						}
					}
				}
				JOINT LeftShoulder
				{
					OFFSET 0.000000 0.000000 0.000000
					CHANNELS 3 Zrotation Yrotation Xrotation
					JOINT LeftArm
					{
						OFFSET 3.362410 1.200890 -0.311210
						CHANNELS 3 Zrotation Yrotation Xrotation
						JOINT LeftForeArm
						{
							OFFSET 4.983000 -0.000000 -0.000000
							CHANNELS 3 Zrotation Yrotation Xrotation
							JOINT LeftHand
							{
								OFFSET 3.483560 -0.000000 -0.000000
								CHANNELS 3 Zrotation Yrotation Xrotation
								JOINT LeftFingerBase
								{
									OFFSET 0.000000 0.000000 0.000000
									CHANNELS 3 Zrotation Yrotation Xrotation
									JOINT LeftHandIndex1
									{
										OFFSET 0.715260 -0.000000 -0.000000
										CHANNELS 3 Zrotation Yrotation Xrotation
										End Site
										{
											OFFSET 0.000000 0.000000 0.000000
										}
									}
								}
								JOINT LThumb
								{
									OFFSET 0.000000 0.000000 0.000000
									CHANNELS 3 Zrotation Yrotation Xrotation
									End Site
									{
										OFFSET 0.000000 0.000000 0.000000
									}
								}
							}
						}
					}
				}
				JOINT RightShoulder
				{
					OFFSET 0.000000 0.000000 0.000000
					CHANNELS 3 Zrotation Yrotation Xrotation
					JOINT RightArm
					{
						OFFSET -3.136600 1.374050 -0.404650
						CHANNELS 3 Zrotation Yrotation Xrotation
						JOINT RightForeArm
						{
							OFFSET -5.241900 -0.000000 -0.000000
							CHANNELS 3 Zrotation Yrotation Xrotation
							JOINT RightHand
							{
								OFFSET -3.444170 -0.000000 -0.000000
								CHANNELS 3 Zrotation Yrotation Xrotation
								JOINT RightFingerBase
								{
									OFFSET 0.000000 0.000000 0.000000
									CHANNELS 3 Zrotation Yrotation Xrotation
									JOINT RightHandIndex1
									{
										OFFSET -0.622530 -0.000000 -0.000000
										CHANNELS 3 Zrotation Yrotation Xrotation
										End Site
										{
											OFFSET 0.000000 0.000000 0.000000
										}
									}
								}
								JOINT RThumb
								{
									OFFSET 0.000000 0.000000 0.000000
									CHANNELS 3 Zrotation Yrotation Xrotation
									End Site
									{
										OFFSET 0.000000 0.000000 0.000000
									}
								}
							}
						}
					}
				}
			}
		}
	}
}
}
MOTION
Frames: 9
Frame Time: 0.008333
4.803878 17.342357 1.083096 -7.638198 -88.888860 15.152123 -1.822503 -4.990365 -8.567857 -0.549745 -5.074977 -4.864822 -4.724525 -5.050193 -3.402208 6.707818 -4.224057 5.564405 -1.667841 -0.318795 3.675412 0.000000 0.000000 0.000000 16.603560 4.852072 -7.570590 -43.414190 -64.957940 -29.760091 174.060365 -55.820797 179.543543 25.623172 -16.434081 -4.132351 -0.332429 1.332720 -0.000000 0.000000 0.000000 0.000000 0.000000 0.000000 0.000000 -3.800392 -10.587976 -7.051007 54.981801 52.542937 -23.943083 -174.642495 52.166436 179.649665 -20.542325 22.778822 -4.480425 0.178170 -1.311406 0.000000 0.000000 0.000000 0.000000 0.000000 0.000000 0.000000 
4.790578 17.343566 1.075413 -4.668341 -87.681687 12.340042 -1.986262 -5.103164 -8.644169 -0.556546 -5.189720 -4.891420 -4.624356 -5.169868 -3.485314 6.619217 -4.345544 5.536282 -1.626948 -0.316284 3.670162 0.000000 0.000000 0.000000 16.602212 4.600958 -7.604786 -43.684860 -65.101522 -29.533783 174.015427 -55.959104 179.542964 25.605231 -16.450444 -4.132020 -0.326327 1.330810 -0.000000 0.000000 0.000000 0.000000 0.000000 0.000000 0.000000 -3.920945 -10.754247 -7.007555 53.570379 52.890032 -25.354227 -174.687147 52.504975 179.648454 -20.795433 23.124839 -4.605594 0.185042 -1.315469 0.000000 0.000000 0.000000 0.000000 0.000000 0.000000 0.000000 
4.777842 17.344782 1.068100 -2.976120 -86.348309 10.828501 -2.181302 -5.236916 -8.713055 -0.563419 -5.319247 -4.919875 -4.514608 -5.304952 -3.587777 6.504125 -4.467322 5.509452 -1.574568 -0.313315 3.665467 0.000000 0.000000 0.000000 16.557821 4.325258 -7.637066 -43.959018 -65.291642 -29.314552 173.970890 -56.128054 179.542369 25.581550 -16.471841 -4.131799 -0.319442 1.328710 -0.000000 0.000000 0.000000 0.000000 0.000000 0.000000 0.000000 -4.110058 -10.915734 -6.968957 52.124456 53.220295 -26.878513 -174.720913 52.897301 179.646583 -21.114614 23.455569 -4.744561 0.192716 -1.318591 0.000000 0.000000 0.000000 0.000000 0.000000 0.000000 0.000000 
4.765863 17.345962 1.061287 -1.900784 -84.940911 9.958115 -2.385054 -5.371388 -8.774466 -0.568914 -5.446906 -4.951610 -4.398339 -5.438628 -3.711500 6.360592 -4.582441 5.484969 -1.510697 -0.309882 3.661617 0.000000 0.000000 0.000000 16.462587 4.032575 -7.665860 -44.240660 -65.536968 -29.101025 173.928129 -56.332989 179.541729 25.554547 -16.497757 -4.131986 -0.311854 1.326443 -0.000000 0.000000 0.000000 0.000000 0.000000 0.000000 0.000000 -4.370966 -11.053411 -6.935921 50.651630 53.522342 -28.505909 -174.744729 53.363122 179.644207 -21.490702 23.720862 -4.885335 0.200862 -1.319441 0.000000 0.000000 0.000000 0.000000 0.000000 0.000000 0.000000 
4.755116 17.347089 1.054973 -1.166985 -83.488714 9.450486 -2.585419 -5.495402 -8.826174 -0.572196 -5.562977 -4.987112 -4.277529 -5.561026 -3.857879 6.189718 -4.683211 5.463727 -1.435602 -0.306001 3.658834 0.000000 0.000000 0.000000 16.310686 3.726673 -7.689647 -44.534847 -65.846688 -28.890839 173.888613 -56.579376 179.540980 25.528857 -16.528290 -4.133280 -0.303717 1.324026 -0.000000 0.000000 0.000000 0.000000 0.000000 0.000000 0.000000 -4.701482 -11.150951 -6.908535 49.149992 53.786218 -30.226230 -174.761458 53.917396 179.641510 -21.907867 23.880846 -5.015328 0.209103 -1.317081 0.000000 0.000000 0.000000 0.000000 0.000000 0.000000 0.000000 
4.745892 17.348148 1.049135 -0.625129 -82.016425 9.152909 -2.777793 -5.600517 -8.860889 -0.573570 -5.659085 -5.025694 -4.153648 -5.663673 -4.027982 5.995270 -4.760764 5.446424 -1.350259 -0.301717 3.657248 0.000000 0.000000 0.000000 16.100044 3.410502 -7.706719 -44.847297 -66.228347 -28.681422 173.853685 -56.872240 179.540062 25.511142 -16.561409 -4.136381 -0.295265 1.321412 -0.000000 0.000000 0.000000 0.000000 0.000000 0.000000 0.000000 -5.091568 -11.191999 -6.886040 47.604179 54.005531 -32.033423 -174.776768 54.574625 179.638716 -22.344213 23.912000 -5.123347 0.216982 -1.311019 0.000000 0.000000 0.000000 0.000000 0.000000 0.000000 0.000000 
4.738312 17.349169 1.043857 -0.235839 -80.531680 9.036150 -2.950090 -5.682590 -8.892791 -0.570641 -5.732595 -5.070067 -4.026566 -5.743686 -4.219511 5.775169 -4.805228 5.432331 -1.254689 -0.297025 3.656755 0.000000 0.000000 0.000000 15.824873 3.086177 -7.713738 -45.186764 -66.682769 -28.466063 173.825563 -57.210674 179.538892 25.507000 -16.605178 -4.144282 -0.286742 1.318874 -0.000000 0.000000 0.000000 0.000000 0.000000 0.000000 0.000000 -5.543681 -11.163462 -6.868526 46.009883 54.166271 -33.912350 -174.794551 55.337452 179.635855 -22.790986 23.827106 -5.208495 0.224330 -1.301738 0.000000 0.000000 0.000000 0.000000 0.000000 0.000000 0.000000 
4.733174 17.350119 1.038816 0.091188 -79.063260 8.988731 -3.110831 -5.734808 -8.896084 -0.566568 -5.774375 -5.115978 -3.897052 -5.791961 -4.434462 5.538321 -4.809890 5.420960 -1.151716 -0.292035 3.657051 0.000000 0.000000 0.000000 15.491233 2.755781 -7.709924 -45.555318 -67.214684 -28.244651 173.804182 -57.596223 179.537432 25.525422 -16.649817 -4.156095 -0.278498 1.316110 -0.000000 0.000000 0.000000 0.000000 0.000000 0.000000 0.000000 -6.029753 -11.052465 -6.853790 44.328733 54.274082 -35.868809 -174.824898 56.214694 179.633198 -23.225846 23.646066 -5.268383 0.230797 -1.289678 0.000000 0.000000 0.000000 0.000000 0.000000 0.000000 0.000000 
4.730354 17.351086 1.034115 0.349727 -77.611218 9.032259 -3.247851 -5.756053 -8.889176 -0.558230 -5.784913 -5.166568 -3.763189 -5.808712 -4.669186 5.278254 -4.765872 5.410464 -1.040728 -0.286696 3.657775 0.000000 0.000000 0.000000 15.095168 2.419846 -7.691196 -45.960504 -67.814941 -28.010883 173.791206 -58.023262 179.535599 25.572965 -16.704184 -4.175205 -0.270813 1.313401 -0.000000 0.000000 0.000000 0.000000 0.000000 0.000000 0.000000 -6.559726 -10.850104 -6.841680 42.567937 54.313643 -37.885005 -174.870332 57.197104 179.630570 -23.660580 23.424558 -5.317402 0.236651 -1.276269 0.000000 0.000000 0.000000 0.000000 0.000000 0.000000 0.000000 
